<?xml version="1.0" encoding="UTF-8"?><svg id="Layer_1" xmlns="http://www.w3.org/2000/svg" viewBox="0 0 434.9 105"><defs><style>.cls-1{fill:rgba(141,0,255,.67);}</style></defs><path class="cls-1" d="M29.28,103.52V18.34H0V0H77.49V18.34h-29.28V103.52H29.28Zm83.77,1.48c-8.92,0-16.37-1.77-22.33-5.32-5.92-3.6-10.35-8.33-13.31-14.2-2.96-5.92-4.44-12.37-4.44-19.37s1.38-12.99,4.14-18.71c2.81-5.72,6.9-10.3,12.27-13.75,5.37-3.5,11.93-5.25,19.67-5.25,7.1,0,13.01,1.45,17.75,4.36,4.73,2.91,8.28,6.8,10.65,11.68,2.37,4.83,3.55,10.18,3.55,16.05,0,1.63-.1,3.28-.3,4.95-.2,1.63-.49,3.33-.89,5.1h-47.77c.69,4.58,2.12,8.31,4.29,11.17,2.22,2.81,4.9,4.88,8.06,6.21,3.2,1.33,6.63,2,10.28,2,4.29,0,8.28-.54,11.98-1.63,3.7-1.13,7.1-2.61,10.2-4.44l.89,15.53c-2.81,1.48-6.31,2.79-10.5,3.92-4.19,1.13-8.92,1.7-14.2,1.7Zm-20.56-46.88h29.87c0-2.22-.42-4.44-1.26-6.65-.84-2.27-2.24-4.17-4.21-5.69-1.92-1.53-4.54-2.29-7.84-2.29-4.73,0-8.45,1.38-11.17,4.14-2.71,2.76-4.51,6.26-5.4,10.5Zm61.02,45.4V29.58h17.15l.44,7.84c1.87-2.07,4.51-4.14,7.91-6.21,3.4-2.07,7.12-3.11,11.17-3.11,1.18,0,2.27,.1,3.25,.3l-1.33,18.04c-1.08-.3-2.17-.49-3.25-.59-1.04-.1-2.07-.15-3.11-.15-3.11,0-5.94,.71-8.5,2.14-2.56,1.43-4.36,3.18-5.4,5.25v50.43h-18.34Zm72.92,1.48c-4.63,0-8.4-.94-11.31-2.81-2.91-1.92-5.05-4.36-6.43-7.32-1.38-2.96-2.07-6.04-2.07-9.24V44.66h-10.5l1.63-15.08h8.87V13.31l18.34-1.92V29.58h16.27v15.08h-16.27v33.42c0,3.75,.22,6.46,.67,8.13,.44,1.63,1.45,2.66,3.03,3.11,1.58,.39,4.09,.59,7.54,.59h5.03l-1.63,15.08h-13.16Zm41.22-1.48l-21.59-73.94h17.89l12.72,51.61,13.9-50.13h15.38l13.75,50.13,12.87-51.61h17.89l-21.59,73.94h-15.38l-15.23-48.21-15.23,48.21h-15.38Zm92.81,0V29.58h18.34V103.52h-18.34Zm0-85.18V0h18.34V18.34h-18.34Zm59.63,86.66c-4.64,0-8.41-.94-11.31-2.81-2.91-1.92-5.05-4.36-6.43-7.32-1.38-2.96-2.07-6.04-2.07-9.24V44.66h-10.5l1.63-15.08h8.87V13.31l18.34-1.92V29.58h16.27v15.08h-16.27v33.42c0,3.75,.22,6.46,.67,8.13,.44,1.63,1.45,2.66,3.03,3.11,1.57,.39,4.09,.59,7.54,.59h5.03l-1.63,15.08h-13.16Z"/></svg>